<?xml version="1.0" encoding="utf-8"?>
<!-- Generator: Adobe Illustrator 27.0.1, SVG Export Plug-In . SVG Version: 6.00 Build 0)  -->
<svg version="1.1" id="グループ_240" xmlns="http://www.w3.org/2000/svg" xmlns:xlink="http://www.w3.org/1999/xlink" x="0px"
	 y="0px" viewBox="0 0 30 25" style="enable-background:new 0 0 30 25;" xml:space="preserve">
<path id="パス_467" d="M26.8,6.4c0,0.3,0,0.5,0,0.8c0,8.1-6.1,17.3-17.3,17.3l0,0c-3.3,0-6.6-0.9-9.3-2.7c0.5,0.1,1,0.1,1.5,0.1
	c2.7,0,5.4-0.9,7.6-2.6c-2.6,0-4.9-1.7-5.7-4.2c0.9,0.2,1.9,0.1,2.8-0.1c-2.8-0.6-4.9-3.1-4.9-6V8.9c0.8,0.5,1.8,0.7,2.8,0.8
	C1.4,7.9,0.6,4.3,2.2,1.5c3.1,3.8,7.7,6.1,12.6,6.4c-0.8-3.3,1.3-6.6,4.6-7.3c2.1-0.5,4.3,0.2,5.8,1.8c1.4-0.3,2.7-0.8,3.9-1.5
	c-0.5,1.4-1.4,2.6-2.7,3.4c1.2-0.1,2.4-0.5,3.5-1C29,4.5,28,5.6,26.8,6.4"/>
</svg>
