<?xml version="1.0" encoding="utf-8"?>
<!-- Generator: Adobe Illustrator 27.0.1, SVG Export Plug-In . SVG Version: 6.00 Build 0)  -->
<svg version="1.1" id="グループ_253" xmlns="http://www.w3.org/2000/svg" xmlns:xlink="http://www.w3.org/1999/xlink" x="0px"
	 y="0px" viewBox="0 0 30 28" style="enable-background:new 0 0 30 28;" xml:space="preserve">
<path id="パス_481" d="M29.1,14.1C29.1,6.3,22.8,0,15,0S0.9,6.3,0.9,14.1C0.9,21,6,26.9,12.8,28v-9.8H9.2v-4.1h3.6V11
	c0-3.5,2.1-5.5,5.3-5.5c1.1,0,2.1,0.1,3.2,0.3v3.5h-1.8c-1.1-0.2-2.1,0.6-2.3,1.7c0,0.2,0,0.3,0,0.5v2.6h3.9l-0.6,4.1h-3.3V28
	C24,26.9,29.1,21,29.1,14.1"/>
</svg>
