<?xml version="1.0" encoding="utf-8"?>
<!-- Generator: Adobe Illustrator 27.0.1, SVG Export Plug-In . SVG Version: 6.00 Build 0)  -->
<svg version="1.1" id="レイヤー_1" xmlns="http://www.w3.org/2000/svg" xmlns:xlink="http://www.w3.org/1999/xlink" x="0px"
	 y="0px" viewBox="0 0 30 29" style="enable-background:new 0 0 30 29;" xml:space="preserve">
<g id="グループ_247" transform="translate(0.501 0.502)">
	<path id="前面オブジェクトで型抜き_1" d="M13.7,28c-0.1,0-0.3,0-0.4-0.2c-0.1-0.3-0.2-0.5-0.1-0.8v0
		c0-0.2,0.2-1.3,0.2-1.3c0.1-0.4,0.1-0.9,0-1.3c-0.2-0.4-0.8-0.6-1.3-0.7c-3.3-0.4-6.4-1.8-8.8-4c-2.2-2-3.5-4.8-3.5-7.7
		C-0.2,5.3,6.4,0,14.5,0s14.7,5.3,14.7,11.9c-0.1,2.8-1.2,5.4-3.1,7.3c-1.9,2-4,3.8-6.3,5.3c-1.6,1.2-3.4,2.3-5.2,3.2
		C14.3,27.9,14,28,13.7,28z M20.2,8.7c-0.2,0-0.3,0.1-0.3,0.3v6.4c0,0.2,0.1,0.3,0.3,0.3h4.1c0.2,0,0.3-0.1,0.3-0.3l0,0v-1
		c0-0.2-0.1-0.3-0.3-0.3l0,0h-2.8V13h2.8c0.2,0,0.3-0.1,0.3-0.3l0,0v-1c0-0.2-0.1-0.3-0.3-0.3l0,0h-2.8v-1.1h2.8
		c0.2,0,0.3-0.1,0.3-0.3l0,0V9c0-0.2-0.1-0.3-0.3-0.3H20.2z M17.5,15.7C17.5,15.7,17.5,15.7,17.5,15.7L17.5,15.7
		C17.5,15.7,17.6,15.7,17.5,15.7l1.1,0c0.2,0,0.3-0.1,0.3-0.3l0,0V9c0-0.2-0.1-0.3-0.3-0.3h-1c-0.2,0-0.3,0.1-0.3,0.3v3.8l-2.9-4
		c0,0,0,0,0,0l0,0l0,0c0,0,0,0,0,0c0,0,0,0,0,0c0,0,0,0,0,0l0,0l0,0l0,0c0,0,0,0,0,0h0c0,0,0,0,0,0c0,0,0,0,0,0l0,0h0c0,0,0,0,0,0h0
		h0l0,0h0c0,0,0,0,0,0h0l0,0h0h0c0,0,0,0,0,0h-1c-0.2,0-0.3,0.1-0.3,0.3v6.4c0,0.2,0.1,0.3,0.3,0.3l0,0h1c0.2,0,0.3-0.1,0.3-0.3
		v-3.8l0,0l2.9,4C17.4,15.7,17.4,15.7,17.5,15.7C17.4,15.7,17.4,15.7,17.5,15.7L17.5,15.7L17.5,15.7C17.5,15.7,17.5,15.7,17.5,15.7
		L17.5,15.7L17.5,15.7L17.5,15.7z M10.5,8.7c-0.2,0-0.3,0.1-0.3,0.3v6.4c0,0.2,0.1,0.3,0.3,0.3h1c0.2,0,0.3-0.1,0.3-0.3l0,0V9
		c0-0.2-0.1-0.3-0.3-0.3H10.5z M4.9,8.7C4.8,8.7,4.6,8.9,4.6,9v6.4c0,0.2,0.1,0.3,0.3,0.3h0H9c0.2,0,0.3-0.1,0.3-0.3v-1
		c0-0.2-0.1-0.3-0.3-0.3H6.2V9c0-0.2-0.1-0.3-0.3-0.3H4.9z"/>
</g>
</svg>
