<?xml version="1.0" encoding="utf-8"?>
<!-- Generator: Adobe Illustrator 27.1.1, SVG Export Plug-In . SVG Version: 6.00 Build 0)  -->
<svg version="1.1" id="レイヤー_1" xmlns="http://www.w3.org/2000/svg" xmlns:xlink="http://www.w3.org/1999/xlink" x="0px"
	 y="0px" viewBox="0 0 164 120" style="enable-background:new 0 0 164 120;" xml:space="preserve">
<g id="グループ_3" transform="translate(-130.579 -566.883)">
	<path id="パス_157" d="M212.6,566.9c-20.4,0-36.9,16.5-36.9,36.9c0,20.4,16.5,36.9,36.9,36.9c20.4,0,36.9-16.5,36.9-36.9
		C249.5,583.4,233,566.9,212.6,566.9 M246.9,592.8l-10.5,18.8l-29.3-43.3C224.6,565.5,241.4,575.9,246.9,592.8 M228.8,625
		c-0.8-0.8-2.6-2.6-3.7-3.8c1.6-2.2,2.4-4.8,2.4-7.5h-0.9c0,2.4-0.7,4.8-2.1,6.8c-4-4.1-7.5-7.7-9.8-10.1c0.3,0,0.5-0.1,0.8-0.1
		c4-0.5,6.3-2.9,6.3-6.5c0-3.4-2.8-6.1-6.1-6.1c-3.4,0-6.1,2.8-6.1,6.1c0,2.2,0.9,3.4,2.1,4.8c0,0,0.5,0.5,1.2,1.2
		c-4,1.1-5.9,3.5-6,7.3c-0.7-6.4-5.3-11.8-11.6-13.4c8.2-2.1,13.2-10.4,11.2-18.7c-1.6-6.3-7-11-13.5-11.6c4-2.6,8.4-4.3,13.1-5.2
		l29.8,44L228.8,625z M223.9,621.3c-1.9,2.2-4.6,3.4-7.5,3.4c-4.2,0-8.6-2.8-8.6-7.4c0-3.6,1.8-5.7,5.8-6.7L223.9,621.3 M212.3,608
		c-1.2-1.3-1.9-2.3-1.9-4.2c0-2.9,2.3-5.2,5.2-5.2s5.2,2.3,5.2,5.2c0,1.4-0.5,4.9-5.5,5.6c-0.5,0.1-1,0.2-1.4,0.3
		C213.6,609.4,212.3,608,212.3,608 M192.1,574.5c8,0.2,14.3,6.9,14,14.9c-0.2,7.7-6.4,13.8-14,14V574.5z M192.1,604.3
		c8,0.2,14.2,6.9,14,14.9c-0.2,7.6-6.4,13.8-14,14V604.3z M176.6,603.8c0-11.4,5.4-22.1,14.6-28.9v57.8
		C182,626,176.6,615.2,176.6,603.8 M193.1,634.1c7.9-0.8,13.9-7.4,13.9-15.3c0-0.1,0-0.3,0-0.4c0.6,4.6,5.1,7.2,9.4,7.2
		c3.1,0,6.1-1.3,8.2-3.7c1.8,1.9,3.3,3.4,3.8,3.9l-7.2,12.9C211.5,641.2,201.4,639.4,193.1,634.1 M222.4,638.5l24.8-44.5
		C252.7,613.1,241.6,633,222.4,638.5C222.4,638.4,222.4,638.5,222.4,638.5"/>
	<path id="パス_158" d="M191.8,657.2H182v1.2h4.3v11.1h1.2v-11.1h4.3L191.8,657.2z"/>
	<path id="パス_159" d="M280.6,657.2h-9.8v1.2h4.3v11.1h1.2v-11.1h4.3L280.6,657.2z"/>
	<path id="パス_160" d="M176.9,657.2v6.8c0,2.4-1.9,4.3-4.3,4.3s-4.3-1.9-4.3-4.3v-6.8h-1.2v6.8c0,3.1,2.5,5.5,5.5,5.5
		c3.1,0,5.5-2.5,5.5-5.5v-6.8H176.9z"/>
	<path id="パス_161" d="M265.7,657.2v6.8c0,2.4-1.9,4.3-4.3,4.3c-2.4,0-4.3-1.9-4.3-4.3v-6.8h-1.2v6.8c0,3.1,2.5,5.5,5.5,5.5
		s5.5-2.5,5.5-5.5v-6.8H265.7z"/>
	<path id="パス_162" d="M293,657.2v5.5h-7.4v-5.5h-1.2v12.3h1.2v-5.5h7.4v5.5h1.2v-12.3H293z"/>
	<path id="パス_163" d="M239.7,663.3c0,3.4,2.7,6.1,6.1,6.1s6.1-2.7,6.1-6.1c0-3.4-2.7-6.1-6.1-6.1
		C242.5,657.2,239.7,659.9,239.7,663.3 M240.9,663.3c0-2.7,2.2-4.9,4.9-4.9c2.7,0,4.9,2.2,4.9,4.9c0,2.7-2.2,4.9-4.9,4.9
		C243.1,668.2,240.9,666,240.9,663.3"/>
	<path id="パス_164" d="M136.5,663.3c1.5-1.1,1.9-3.2,0.8-4.7c-0.6-0.9-1.7-1.4-2.8-1.4h-3.7v12.3h3.7c1.9,0,3.4-1.5,3.4-3.4
		C138,665,137.4,663.9,136.5,663.3 M132.1,658.4h2.5c1.2,0,2.2,0.9,2.2,2.1c0,1.2-0.9,2.2-2.1,2.2c0,0-0.1,0-0.1,0h-2.5L132.1,658.4
		z M134.6,668.2h-2.5v-4.3h2.5c1.2,0.1,2.1,1.1,2,2.3C136.6,667.3,135.7,668.2,134.6,668.2"/>
	<path id="パス_165" d="M148.9,658.4v-1.2h-7.1v12.3h7.1v-1.2H143v-4.3h5.8v-1.2H143v-4.3L148.9,658.4z"/>
	<path id="パス_166" d="M154,669.4l1.5-3.1h6.5l1.5,3.1h1.4l-6.1-12.3l-6.1,12.3H154z M158.8,659.9l2.6,5.2h-5.2L158.8,659.9z"/>
	<path id="パス_167" d="M205.5,657.2l-4.3,6l-4.3-6h-1.5l5.2,7.3v5h1.2v-5l5.2-7.3H205.5z"/>
	<path id="パス_168" d="M222.2,669.4c0,0-1.3-1.4-2.2-2.3c0.6-1,0.9-2.1,0.9-3.2h-1.2c0,0.8-0.2,1.6-0.6,2.3
		c-1.6-1.8-2.8-3-3.3-3.6c0.6-0.2,1.1-0.4,1.6-0.8c0.5-0.5,0.8-1.1,0.8-1.8c0-1.5-1.2-2.8-2.7-2.8c-1.5,0-2.8,1.2-2.8,2.7
		c0,0.8,0.3,1.5,0.8,2l0.2,0.2c-1.9,0.6-3,2.6-2.4,4.5c0.2,0.7,0.7,1.4,1.3,1.8c0.9,0.7,2,1.1,3.1,1.1c1.3,0,2.6-0.5,3.5-1.4
		c0.4,0.4,1.3,1.4,1.3,1.4L222.2,669.4z M215.5,658.4c0.8,0,1.5,0.7,1.5,1.5c0,0.5-0.2,1.1-1.7,1.6c-0.1,0-0.2,0.1-0.4,0.1
		c-0.1-0.1-0.2-0.2-0.3-0.4l-0.1-0.2c-0.4-0.5-0.5-0.7-0.5-1.1C213.9,659.1,214.6,658.4,215.5,658.4
		C215.5,658.4,215.5,658.4,215.5,658.4 M215.8,668.2c-0.9,0-1.7-0.3-2.4-0.8c-0.6-0.5-1-1.2-1-2c0-0.6,0.2-1.2,0.7-1.6
		c0.4-0.4,0.9-0.6,1.5-0.8c0.3,0.3,2,2.1,3.9,4.2C217.7,667.9,216.8,668.2,215.8,668.2"/>
	<path id="パス_169" d="M236.5,657.2l-4.3,6l-4.3-6h-1.5l5.2,7.3v5h1.2v-5l5.2-7.3H236.5z"/>
	<path id="パス_170" d="M166.1,679.1h0.8v4.3c0,1.9-1.6,3.5-3.6,3.5c-1.9,0-3.4-1.6-3.5-3.5v-4.3h0.8v4.3c0,1.5,1.2,2.7,2.7,2.7
		c1.5,0,2.7-1.2,2.7-2.7V679.1z"/>
	<path id="パス_171" d="M175.2,679h0.8v7.8l-6.3-6v6h-0.8V679l6.3,6L175.2,679z"/>
	<rect id="長方形_387" x="178.3" y="679" width="0.8" height="7.8"/>
	<path id="パス_172" d="M187.7,679v0.8h-2.7v7h-0.8v-7h-2.7V679H187.7z"/>
	<path id="パス_173" d="M194.3,679.8h-3.7v2.7h3.7v0.8h-3.7v2.7h3.7v0.8h-4.5v-7.8h4.5V679.8z"/>
	<path id="パス_174" d="M199.1,679c2.2,0,3.9,1.8,3.9,3.9s-1.8,3.9-3.9,3.9h-2.7V679H199.1z M199.1,686.1c1.7,0,3.1-1.4,3.1-3.1
		s-1.4-3.1-3.1-3.1h-1.9v6.2H199.1z"/>
	<path id="パス_175" d="M210.1,686.9h-0.9l3.9-7.8l3.9,7.8h-0.9l-1-2h-4.1L210.1,686.9z M213.2,680.8l-1.7,3.3h3.3L213.2,680.8z"
		/>
	<path id="パス_176" d="M219.8,683.3v3.5H219V679h4.4c1.2,0,2.2,0.9,2.2,2.1c0,1.2-0.9,2.2-2.1,2.2l2.2,3.5h-0.9l-2.2-3.5
		L219.8,683.3z M219.8,679.8v2.7h3.6c0.8,0,1.4-0.6,1.4-1.4s-0.6-1.4-1.4-1.4H219.8z"/>
	<path id="パス_177" d="M228.4,683.3v3.5h-0.8V679h4.4c1.2,0,2.2,0.9,2.2,2.1c0,1.2-0.9,2.2-2.1,2.2l2.2,3.5h-0.9l-2.2-3.5
		L228.4,683.3z M228.4,679.8v2.7h3.6c0.8,0,1.4-0.6,1.4-1.4s-0.6-1.4-1.4-1.4H228.4z"/>
	<path id="パス_178" d="M236.2,683c0-2.2,1.7-3.9,3.9-3.9s3.9,1.7,3.9,3.9s-1.7,3.9-3.9,3.9c0,0,0,0,0,0
		C238,686.9,236.2,685.1,236.2,683 M237,683c0,1.7,1.4,3.1,3.1,3.1s3.1-1.4,3.1-3.1c0-1.7-1.4-3.1-3.1-3.1c0,0,0,0,0,0
		C238.4,679.8,237,681.2,237,683"/>
	<path id="パス_179" d="M255.6,679.1h0.9l-2.9,7.8l-2.3-5.7l-2.3,5.7l-2.9-7.8h0.8l2.1,5.6l2.3-5.6l2.3,5.6L255.6,679.1z"/>
	<path id="パス_180" d="M259.9,679.5c0.6-0.3,1.3-0.4,1.9-0.4c0.7,0,1.4,0.2,2.1,0.6c0.6,0.4,1,1,1.1,1.7h-0.8
		c0-0.5-0.3-0.9-0.7-1.1c-0.5-0.3-1.1-0.5-1.6-0.5c-0.5,0-1.1,0.1-1.6,0.4c-0.5,0.2-0.8,0.7-0.8,1.2c0,0.4,0.3,0.7,0.6,0.8
		c0.6,0.2,1.2,0.3,1.9,0.4c0.7,0,1.5,0.2,2.2,0.4c0.7,0.2,1.2,0.9,1.2,1.7c0,0.8-0.5,1.4-1.2,1.7c-0.7,0.3-1.5,0.5-2.3,0.5
		c-0.8,0-1.6-0.2-2.3-0.6c-0.7-0.4-1.2-1.1-1.2-2h0.8c0,0.5,0.3,1,0.8,1.3c0.6,0.3,1.2,0.5,1.9,0.5c0.7,0,1.3-0.1,1.9-0.4
		c0.5-0.3,0.8-0.6,0.8-1c0-0.4-0.3-0.8-0.7-1c-0.6-0.2-1.3-0.3-2-0.4c-0.7-0.1-1.4-0.2-2.1-0.4c-0.7-0.2-1.1-0.9-1.1-1.6
		C258.7,680.6,259.2,679.8,259.9,679.5"/>
</g>
</svg>
