<?xml version="1.0" encoding="utf-8"?>
<!-- Generator: Adobe Illustrator 27.3.1, SVG Export Plug-In . SVG Version: 6.00 Build 0)  -->
<svg version="1.1" id="レイヤー_1" xmlns="http://www.w3.org/2000/svg" xmlns:xlink="http://www.w3.org/1999/xlink" x="0px"
	 y="0px" viewBox="0 0 215 13" style="enable-background:new 0 0 215 13;" xml:space="preserve">
<style type="text/css">
	.st0{fill:#151515;}
</style>
<g id="グループ_334" transform="translate(-603 -304)">
	<path id="パス_206" class="st0" d="M603.4,315.9v-1.3l3.7-4c0.3-0.4,0.7-0.8,1-1.2c0.2-0.3,0.4-0.6,0.5-0.9
		c0.1-0.2,0.1-0.5,0.1-0.8c0-0.5-0.1-0.9-0.4-1.3c-0.3-0.3-0.8-0.5-1.2-0.5c-0.5,0-1,0.2-1.4,0.6c-0.3,0.4-0.5,1-0.5,1.5h-1.9
		c0-0.6,0.2-1.3,0.5-1.8c0.3-0.6,0.8-1,1.3-1.3c0.6-0.3,1.3-0.5,2.1-0.5c0.7,0,1.3,0.1,1.9,0.4c0.5,0.2,0.9,0.6,1.2,1.1
		c0.3,0.5,0.4,1.1,0.4,1.7c0,0.7-0.2,1.4-0.6,2c-0.5,0.8-1.1,1.5-1.7,2.2l-2.5,2.6h5.2v1.6h-7.7V315.9z M620,311.1
		c0,3.3-1.2,4.9-3.7,4.9c-1.1,0.1-2.1-0.4-2.8-1.2c-0.8-1.1-1.1-2.4-1-3.8v-1.9c-0.1-1.3,0.2-2.6,1-3.7c0.7-0.8,1.7-1.2,2.8-1.2
		c1.1-0.1,2.1,0.4,2.8,1.2c0.7,1.1,1.1,2.4,1,3.7L620,311.1L620,311.1z M618.1,309c0.1-0.8-0.1-1.6-0.4-2.3
		c-0.3-0.5-0.8-0.7-1.4-0.7c-0.5,0-1.1,0.2-1.3,0.7c-0.4,0.7-0.5,1.5-0.4,2.3v2.4c-0.1,0.8,0.1,1.6,0.5,2.4c0.3,0.5,0.8,0.8,1.3,0.7
		c0.5,0,1.1-0.3,1.3-0.7c0.3-0.7,0.5-1.6,0.4-2.4L618.1,309L618.1,309z M621.7,315.9v-1.3l3.7-4c0.3-0.4,0.7-0.8,1-1.2
		c0.2-0.3,0.4-0.6,0.5-0.9c0.1-0.2,0.1-0.5,0.1-0.8c0-0.5-0.1-0.9-0.4-1.3c-0.3-0.3-0.8-0.5-1.2-0.5c-0.5,0-1,0.2-1.4,0.6
		c-0.3,0.4-0.5,1-0.5,1.5h-1.9c0-0.6,0.2-1.3,0.5-1.8c0.3-0.6,0.8-1,1.3-1.3c0.6-0.3,1.3-0.5,2.1-0.5c0.7,0,1.3,0.1,1.9,0.4
		c0.5,0.2,0.9,0.6,1.2,1.1c0.3,0.5,0.4,1.1,0.4,1.7c0,0.7-0.2,1.4-0.6,2c-0.5,0.8-1.1,1.5-1.7,2.2l-2.5,2.6h5.2v1.6h-7.7V315.9z
		 M636.2,310.1c0.6,0.2,1.1,0.5,1.4,1c0.3,0.5,0.5,1,0.5,1.6s-0.2,1.3-0.5,1.8c-0.3,0.5-0.8,0.9-1.4,1.1c-0.6,0.3-1.3,0.4-2,0.4
		c-0.6,0-1.3-0.1-1.9-0.4c-0.5-0.2-1-0.6-1.4-1.1s-0.5-1.1-0.5-1.8h1.9c0,0.3,0.1,0.6,0.2,0.9c0.2,0.3,0.4,0.5,0.6,0.6
		c0.3,0.1,0.6,0.2,1,0.2c0.5,0,1-0.1,1.4-0.5c0.3-0.3,0.5-0.8,0.5-1.3s-0.2-1-0.5-1.4c-0.4-0.3-1-0.5-1.5-0.5h-1.1v-1.5h1.1
		c0.5,0,1-0.1,1.4-0.5c0.3-0.3,0.5-0.8,0.5-1.3s-0.1-0.9-0.4-1.2c-0.3-0.3-0.8-0.5-1.3-0.4c-0.3,0-0.6,0.1-0.9,0.2s-0.5,0.3-0.6,0.5
		c-0.2,0.2-0.2,0.5-0.2,0.8h-1.9c0-0.6,0.2-1.1,0.5-1.6c0.3-0.5,0.8-0.9,1.3-1.1c0.6-0.3,1.2-0.4,1.9-0.4c0.7,0,1.3,0.1,1.9,0.4
		c0.5,0.2,1,0.6,1.3,1.1c0.3,0.5,0.5,1.1,0.5,1.8c0,0.5-0.2,1-0.5,1.4C637.2,309.5,636.7,309.8,636.2,310.1L636.2,310.1z M647.7,311
		c-1-0.3-1.9-0.7-2.8-1.4c-0.6-0.5-1-1.3-1-2.1c0-0.6,0.2-1.2,0.5-1.6c0.4-0.5,0.9-0.9,1.4-1.1c0.7-0.3,1.4-0.4,2.1-0.4
		c0.8,0,1.5,0.1,2.2,0.5c0.6,0.3,1.1,0.7,1.4,1.3c0.3,0.5,0.5,1.1,0.5,1.8h-2c0-0.5-0.2-1-0.5-1.4c-0.4-0.4-1-0.6-1.6-0.5
		c-0.5,0-1.1,0.1-1.5,0.4c-0.3,0.3-0.5,0.7-0.5,1.1s0.2,0.8,0.6,1c0.6,0.4,1.2,0.6,1.8,0.8c0.7,0.2,1.5,0.5,2.1,0.9
		c0.5,0.3,0.9,0.7,1.2,1.2c0.3,0.5,0.4,1,0.4,1.6s-0.2,1.2-0.5,1.7c-0.4,0.5-0.8,0.9-1.4,1.1c-0.7,0.3-1.4,0.4-2.1,0.4
		c-0.7,0-1.5-0.1-2.2-0.4c-0.7-0.3-1.2-0.7-1.7-1.2c-0.4-0.6-0.7-1.3-0.6-2h2c0,0.6,0.2,1.2,0.7,1.5c0.5,0.4,1.1,0.5,1.8,0.5
		c0.5,0,1.1-0.1,1.5-0.4c0.3-0.3,0.5-0.7,0.5-1.1c0-0.3-0.1-0.5-0.2-0.8c-0.2-0.3-0.4-0.5-0.7-0.6
		C648.7,311.3,648.2,311.2,647.7,311L647.7,311z M658.2,304.5c0.8,0,1.5,0.1,2.2,0.5c0.6,0.3,1.1,0.7,1.4,1.3
		c0.3,0.6,0.5,1.2,0.5,1.9c0,0.7-0.2,1.3-0.5,1.9c-0.3,0.5-0.8,1-1.4,1.2c-0.7,0.3-1.5,0.4-2.2,0.4h-2.3v4.2h-2v-11.4H658.2z
		 M658.2,310.1c0.6,0,1.2-0.1,1.6-0.5s0.5-0.9,0.5-1.4c0-0.3-0.1-0.7-0.2-1c-0.2-0.3-0.4-0.6-0.7-0.7c-0.4-0.2-0.8-0.3-1.2-0.3h-2.3
		v3.9H658.2z M672.7,315.8v0.1h-2.2l-2.3-4.4h-2.1v4.4h-2v-11.4h4c1.1-0.1,2.2,0.2,3,0.9c0.7,0.6,1.1,1.6,1.1,2.5
		c0,0.7-0.2,1.3-0.5,1.9c-0.4,0.5-0.9,1-1.5,1.2L672.7,315.8z M666.1,309.9h2c0.6,0,1.1-0.1,1.6-0.5c0.4-0.4,0.6-0.8,0.5-1.4
		c0-0.5-0.2-1-0.5-1.4c-0.4-0.4-1-0.5-1.6-0.5h-2V309.9z M674.2,315.9v-11.4h2v11.4H674.2z M685.7,315.9l-5-8v8h-2v-11.4h2l5,8v-8h2
		v11.4H685.7z M698.8,314.4c-0.4,0.5-0.9,0.9-1.5,1.1c-0.9,0.4-1.8,0.5-2.7,0.5s-1.8-0.2-2.5-0.6c-0.7-0.4-1.3-1.1-1.7-1.9
		c-0.4-0.9-0.6-1.9-0.6-2.9v-0.7c0-1,0.2-2,0.6-3c0.3-0.8,0.9-1.4,1.6-1.9c0.8-0.4,1.6-0.7,2.5-0.6c1.1-0.1,2.2,0.3,3.1,1
		c0.7,0.7,1.2,1.7,1.3,2.7h-2c-0.1-1.2-1.1-2.1-2.3-2h-0.1c-0.8,0-1.6,0.3-2,1c-0.5,0.9-0.7,1.9-0.7,2.8v0.8c0,0.7,0.1,1.4,0.3,2.1
		c0.2,0.5,0.5,1,1,1.3s1,0.5,1.6,0.4c0.5,0,0.9,0,1.4-0.2c0.3-0.1,0.5-0.3,0.7-0.5v-2.2h-2.3v-1.5h4.3V314.4z M699.8,316.9l4.4-12.4
		h1.5l-4.4,12.4H699.8z M710.7,311c-1-0.3-1.9-0.7-2.8-1.4c-0.6-0.5-1-1.3-1-2.1c0-0.6,0.2-1.2,0.5-1.6c0.4-0.5,0.9-0.9,1.4-1.1
		c0.7-0.3,1.4-0.4,2.1-0.4c0.8,0,1.5,0.1,2.2,0.5c0.6,0.3,1.1,0.7,1.4,1.3c0.3,0.5,0.5,1.1,0.5,1.8h-2c0-0.5-0.2-1-0.5-1.4
		c-0.4-0.4-1-0.5-1.6-0.5c-0.5,0-1.1,0.1-1.5,0.4c-0.3,0.3-0.5,0.7-0.5,1.1s0.2,0.8,0.6,1c0.6,0.4,1.2,0.6,1.8,0.8
		c0.7,0.2,1.5,0.5,2.1,0.9c0.5,0.3,0.9,0.7,1.2,1.2c0.3,0.5,0.4,1,0.4,1.6s-0.2,1.2-0.5,1.7c-0.4,0.5-0.9,0.9-1.4,1.1
		c-0.7,0.3-1.4,0.4-2.1,0.4c-0.7,0-1.5-0.1-2.2-0.4c-0.7-0.3-1.2-0.7-1.7-1.2c-0.4-0.6-0.7-1.3-0.6-2h2c0,0.6,0.2,1.2,0.7,1.5
		c0.5,0.4,1.1,0.5,1.8,0.5c0.5,0,1.1-0.1,1.5-0.4c0.3-0.3,0.5-0.7,0.5-1.1c0-0.3-0.1-0.5-0.2-0.8c-0.2-0.3-0.4-0.5-0.7-0.6
		C711.8,311.3,711.3,311.2,710.7,311z M725.2,312.1c0,0.8-0.2,1.5-0.6,2.2c-0.4,0.6-0.9,1.1-1.5,1.3c-0.7,0.3-1.4,0.5-2.2,0.4
		c-0.8,0-1.5-0.1-2.2-0.4c-0.6-0.3-1.2-0.7-1.5-1.3c-0.4-0.7-0.6-1.4-0.5-2.2v-7.6h2v7.6c-0.1,0.6,0.2,1.3,0.6,1.7
		c0.5,0.4,1,0.6,1.7,0.6c0.6,0,1.2-0.2,1.7-0.6c0.4-0.5,0.6-1.1,0.6-1.8v-7.6h2L725.2,312.1z M739,315.9h-2v-3.7l0.2-5.1l-3.3,8.7
		h-1.4l-3.3-8.7l0.2,5v3.7h-2v-11.4h2.6l3.2,8.7l3.2-8.7h2.6V315.9z M753.1,315.9h-2v-3.7l0.2-5.1l-3.3,8.7h-1.4l-3.3-8.7l0.2,5v3.7
		h-2v-11.4h2.6l3.2,8.7l3.2-8.7h2.6V315.9z M762.8,314.3v1.6h-7.5v-11.4h7.4v1.6h-5.4v3.1h4.6v1.6h-4.6v3.4L762.8,314.3z M773,315.8
		v0.1h-2.2l-2.3-4.4h-2.2v4.4h-2v-11.4h4c1.1-0.1,2.2,0.2,3,0.9c0.7,0.6,1.1,1.6,1.1,2.5c0,0.7-0.2,1.3-0.5,1.9
		c-0.4,0.5-0.9,1-1.5,1.2L773,315.8z M766.4,309.9h2c0.6,0,1.1-0.1,1.6-0.5c0.4-0.4,0.6-0.8,0.5-1.4c0-0.5-0.2-1-0.5-1.4
		c-0.4-0.4-1-0.5-1.6-0.5h-2V309.9z M785.6,314.3v1.6h-7.2v-11.4h2v9.8H785.6z M795.7,310.5c0,1-0.2,2-0.6,3
		c-0.4,0.8-0.9,1.5-1.7,1.9c-0.7,0.5-1.6,0.7-2.5,0.7s-1.7-0.2-2.5-0.7c-0.7-0.5-1.3-1.1-1.7-1.9c-0.4-0.9-0.6-1.9-0.6-3v-0.6
		c0-1,0.2-2,0.6-3c0.4-0.8,0.9-1.5,1.7-1.9c0.7-0.5,1.6-0.7,2.5-0.7s1.7,0.2,2.5,0.7c0.7,0.5,1.3,1.1,1.7,1.9c0.4,0.9,0.6,1.9,0.6,3
		V310.5z M793.6,309.9c0.1-1-0.2-2-0.7-2.9c-0.5-0.7-1.2-1-2-1c-0.5,0-1,0.1-1.4,0.4s-0.8,0.8-0.9,1.3c-0.2,0.7-0.3,1.4-0.3,2.1v0.6
		c0,0.7,0.1,1.4,0.3,2.1c0.2,0.5,0.5,1,0.9,1.3s0.9,0.5,1.4,0.4c0.8,0,1.6-0.3,2-1c0.5-0.9,0.8-1.9,0.7-2.9V309.9z M806.7,310.5
		c0,1-0.2,2-0.6,3c-0.4,0.8-0.9,1.5-1.7,1.9c-0.7,0.5-1.6,0.7-2.5,0.7s-1.7-0.2-2.5-0.7c-0.7-0.5-1.3-1.1-1.7-1.9
		c-0.4-0.9-0.6-1.9-0.6-3v-0.6c0-1,0.2-2,0.6-3c0.4-0.8,0.9-1.5,1.7-1.9c0.7-0.5,1.6-0.7,2.5-0.7s1.7,0.2,2.5,0.7
		c0.7,0.5,1.3,1.1,1.7,1.9c0.4,0.9,0.6,1.9,0.6,3V310.5z M804.7,309.9c0.1-1-0.2-2-0.7-2.9c-0.5-0.7-1.2-1-2-1c-0.5,0-1,0.1-1.4,0.4
		s-0.8,0.8-0.9,1.3c-0.2,0.7-0.3,1.4-0.3,2.1v0.6c0,0.7,0.1,1.4,0.3,2.1c0.2,0.5,0.5,1,0.9,1.3s0.9,0.5,1.4,0.4c0.8,0,1.6-0.3,2-1
		c0.5-0.9,0.8-1.9,0.7-2.9V309.9z M811.9,311l-1.3,1.4v3.5h-2v-11.4h2v5.3l1.1-1.4l3.3-4h2.5l-4.2,5l4.4,6.3h-2.4L811.9,311z"/>
</g>
</svg>
