<?xml version="1.0" encoding="utf-8"?>
<!-- Generator: Adobe Illustrator 27.3.1, SVG Export Plug-In . SVG Version: 6.00 Build 0)  -->
<svg version="1.1" id="レイヤー_1" xmlns="http://www.w3.org/2000/svg" xmlns:xlink="http://www.w3.org/1999/xlink" x="0px"
	 y="0px" viewBox="0 0 2000 146" style="enable-background:new 0 0 2000 146;" xml:space="preserve">
<style type="text/css">
	.st0{opacity:5.000000e-02;fill:#151515;enable-background:new    ;}
</style>
<path id="合体_1" class="st0" d="M1589.9,73c0-54,29.2-72.9,70.3-72.9s70.3,18.9,70.3,72.9s-29.2,72.9-70.3,72.9
	S1589.9,127,1589.9,73z M1650.5,73c0,21.3,1.8,29.2,9.7,29.2s9.7-7.9,9.7-29.2s-1.8-29.2-9.7-29.2S1650.5,51.7,1650.5,73z
	 M1063.5,73c0-54,29.2-72.9,70.3-72.9S1204,19,1204,73s-29.2,72.9-70.3,72.9S1063.5,127,1063.5,73L1063.5,73z M1124.1,73
	c0,21.3,1.8,29.2,9.7,29.2s9.7-7.9,9.7-29.2s-1.8-29.2-9.7-29.2S1124.1,51.7,1124.1,73L1124.1,73z M188.5,73
	c0-54,29.2-72.9,70.3-72.9S329,19,329,73s-29.2,72.9-70.3,72.9S188.5,127,188.5,73L188.5,73z M249.1,73c0,21.3,1.8,29.2,9.7,29.2
	c7.9,0,9.7-7.9,9.7-29.2s-1.8-29.2-9.7-29.2S249.1,51.7,249.1,73L249.1,73z M1800.9,118.2c0-19.8,3.5-24.1,3.5-33
	c0-5.6-3.4-8.4-7.4-8.4h-5.2V94c0,6,3.1,7,7.7,7v42.1h-70.1V101c4.5,0,7.7-1.1,7.7-7V52c0-6-3.1-7-7.7-7V2.9h71.9
	c41.1,0,69.7,2,69.7,37c0,25-19.6,35.1-65.3,35.1v1.4h51.6c2.7,21.5,4.5,24.7,13.7,24.7v42.1c-5.5,0.8-19.4,1.4-31,1.4
	C1804.4,144.5,1800.9,128.4,1800.9,118.2L1800.9,118.2z M1791.7,74h5.7c8.4,0,12.5-5.8,12.5-15.4c0-11.4-7.7-13.6-13.2-13.6h-5
	L1791.7,74z M1396.4,118.2c0-17.1,3.5-24.8,3.5-33c0-4.8-2.9-8.4-7.4-8.4h-5.2V94c0,6,3.1,7,7.7,7v42.1h-70.1V101
	c4.5,0,7.7-1.1,7.7-7V52c0-6-3.1-7-7.7-7V2.9h70.1V45c-4.5,0-7.7,1.1-7.7,7v22h2.1l16.4-29h-9.4V2.9h70.1V45c-6.5,0-7.9,1.4-9.7,4.5
	L1442.4,73h12.8c0,25.5,3.8,28,11.4,28v42.1c-6.6,0.8-20.5,1.4-31,1.4C1404.1,144.5,1396.4,131.9,1396.4,118.2L1396.4,118.2z
	 M667.5,118.2c0-19.8,3.5-24.1,3.5-33c0-5.6-3.4-8.4-7.4-8.4h-5.2V94c0,6,3.1,7,7.7,7v42.1H596V101c4.5,0,7.7-1.1,7.7-7V52
	c0-6-3.1-7-7.7-7V2.9H668c41.1,0,69.7,2,69.7,37c0,25-19.6,35.1-65.3,35.1v1.4h51.6c2.7,21.5,4.5,24.7,13.7,24.7v42.1
	c-5.5,0.8-19.4,1.4-31,1.4C671,144.5,667.5,128.4,667.5,118.2L667.5,118.2z M658.4,74h5.8c8.4,0,12.5-5.8,12.5-15.4
	c0-11.4-7.7-13.6-13.2-13.6h-5V74z M1872.4,143.1V101c4.5,0,7.7-1.1,7.7-7V52c0-6-3.1-7-7.7-7V2.9H2000V73h-44V52.8
	c0-5.7-2.2-7.9-7.6-7.9h-13.6v26.2h1.4c4.2,0,7.6-2.5,7.6-9v-7h10.8V90h-10.8v-7c0-6.4-3.4-9-7.6-9h-1.4V101h13.6
	c5.3,0,7.6-2.1,7.6-7.9V74.4h44v68.7H1872.4z M1467.9,143.1V101c4.6,0,7.7-1,7.7-7V52c0-5.9-3.2-7-7.7-7V2.9h74.3V45
	c-8.4,0-11.9,1-11.9,7V101h10.8c5.3,0,7.6-2.1,7.6-7.9V74.4h39.8v68.7H1467.9z M1202.9,143.1V101c4.6,0,7.7-1,7.7-7V52
	c0-5.9-3.2-7-7.7-7V2.9h74.3V45c-8.4,0-11.9,1-11.9,7V101h10.8c5.3,0,7.6-2.1,7.6-7.9V74.4h39.8v68.7H1202.9z M938.7,143.1V101
	c4.5,0,7.7-1.1,7.7-7V52c0-6-3.1-7-7.7-7V2.9h123.4V73h-39.8V52.8c0-5.7-2.2-7.9-7.6-7.9h-13.6v26.2h1.4c4.2,0,7.6-2.5,7.6-9v-7
	h10.8V90h-10.8v-7c0-6.4-3.4-9-7.6-9h-1.4V94c0,6,3.5,7,11.9,7v42.1H938.7z M812.3,143.1l-23.4-72.2h-1.4V94c0,6,2.4,7,9.1,7v42.1
	h-57.5V101c4.5,0,7.7-1.1,7.7-7V52c0-6-3.1-7-7.7-7V2.9h75.6l23.3,71.8h1.4V52c0-6-2-7-9.1-7V2.9h57.5V45c-4.5,0-7.7,1.1-7.7,7v91.2
	H812.3z M467,143.1V101c4.5,0,7.7-1.1,7.7-7V52c0-6-3.1-7-7.7-7V2.9h127.6V73h-44V52.8c0-5.7-2.2-7.9-7.6-7.9h-13.6v26.2h1.4
	c4.2,0,7.6-2.5,7.6-9v-7h10.8V90h-10.8v-7c0-6.4-3.4-9-7.6-9h-1.4V101H543c5.3,0,7.6-2.1,7.6-7.9V74.4h44v68.7H467z M327.9,143.1
	V101c4.5,0,7.7-1.1,7.7-7V52c0-6-3.1-7-7.7-7V2.9h71.9c41.1,0,68.3,16.1,68.3,70.1s-27.2,70.1-68.3,70.1H327.9z M390.3,101h4.8
	c7.9,0,13-6.7,13-28s-5.2-28-13-28h-4.8L390.3,101z M122.3,143.1V101c4.5,0,7.7-1.1,7.7-7V58.7h-1.4l-17.7,84.4H70.4L52.6,58.3h-1.4
	V94c0,6,2.4,7,9.1,7v42.1H0V101c4.5,0,7.7-1.1,7.7-7V52c0-6-3.1-7-7.7-7V2.9h82.6l10.7,52.4h1.4l10.8-52.4h84.1V45
	c-4.5,0-7.7,1.1-7.7,7V94c0,6,3.1,7,7.7,7v42.1H122.3z"/>
</svg>
